<svg width="287" height="94" viewBox="0 0 287 94" fill="none" xmlns="http://www.w3.org/2000/svg">
<path d="M12.5 43.75V37.5H6.25V31.25H0V12.5H6.25V6.25H12.5V0H37.5V6.25H43.75V12.5H31.25V6.25H18.75V12.5H12.5V31.25H18.75V37.5H31.25V31.25H43.75V37.5H37.5V43.75H12.5ZM54.75 43.75V37.5H48.5V18.75H54.75V12.5H86V18.75H92.25V37.5H86V43.75H54.75ZM61 37.5H79.75V18.75H61V37.5ZM103.25 43.75V37.5H97V18.75H103.25V12.5H128.25V0H140.75V43.75H103.25ZM109.5 37.5H128.25V18.75H109.5V37.5ZM151.75 43.75V37.5H145.5V18.75H151.75V12.5H183V18.75H189.25V31.25H158V37.5H183V43.75H151.75ZM158 25H176.75V18.75H158V25ZM0 93.75V50H43.75V56.25H12.5V68.75H37.5V75H12.5V93.75H0ZM54.75 93.75V87.5H48.5V62.5H61V87.5H79.75V62.5H92.25V93.75H54.75ZM97 93.75V87.5H128.25V81.25H103.25V75H97V68.75H103.25V62.5H134.5V68.75H109.5V75H134.5V81.25H140.75V87.5H134.5V93.75H97ZM164.25 56.25V50H176.75V56.25H164.25ZM151.75 93.75V87.5H164.25V68.75H158V62.5H176.75V87.5H189.25V93.75H151.75ZM200.25 93.75V87.5H194V68.75H200.25V62.5H231.5V68.75H237.75V87.5H231.5V93.75H200.25ZM206.5 87.5H225.25V68.75H206.5V87.5ZM242.5 93.75V62.5H280V68.75H286.25V93.75H273.75V68.75H255V93.75H242.5Z" fill="url(#paint0_linear_2989_110)"/>
<defs>
<linearGradient id="paint0_linear_2989_110" x1="0" y1="50" x2="293" y2="50" gradientUnits="userSpaceOnUse">
<stop stop-color="#1E293B"/>
<stop offset="1" stop-color="#6D8BFF"/>
</linearGradient>
</defs>
</svg>
